<svg preserveAspectRatio="none" width="100%" height="100%" overflow="visible" style="display: block;" viewBox="0 0 24 24" fill="none" xmlns="http://www.w3.org/2000/svg">
<g id="boxicons:sushi">
<path id="Vector" d="M14.35 2.19C13.6 2.06 12.81 2 12 2C6.95 2 3 4.42 3 7.5V16.5C3 19.58 6.95 22 12 22C17.05 22 21 19.58 21 16.5V7.5C21 4.95 18.32 2.81 14.35 2.19ZM12 20C7.88 20 5 18.16 5 16.5V10.99C6.64 12.22 9.14 13 12 13C14.02 13 15.93 12.61 17.51 11.87C18.07 11.61 18.57 11.32 19 11V16.5C19 18.16 16.12 20 12 20ZM16.67 10.06C15.37 10.67 13.71 11 12 11C7.88 11 5 9.16 5 7.5C5 5.84 7.88 4 12 4C12.7 4 13.37 4.06 14.03 4.17C16.91 4.62 19 6.02 19 7.5C19 8.44 18.13 9.39 16.67 10.06Z" fill="var(--fill-0, white)"/>
<path id="Vector_2" d="M12 5C11.53 5 11.08 5.04 10.64 5.09C10.83 5.47 11.04 6 11.12 6.62C11.24 7.52 11.09 8.73 9.99 9.83C10.61 9.94 11.29 10.01 12 10.01C12.14 10.01 12.26 10 12.4 9.99C14.13 8.27 13.7 6.2 13.25 5.08C12.85 5.04 12.43 5.01 12 5.01V5ZM14.46 5.27C14.82 6.48 14.99 8.22 13.89 9.83C15.99 9.48 17.5 8.57 17.5 7.49C17.5 6.51 16.25 5.68 14.46 5.26V5.27ZM9.52 5.28C7.73 5.69 6.5 6.53 6.5 7.5C6.5 8.33 7.4 9.06 8.77 9.51C10.8 7.96 9.93 5.97 9.52 5.28Z" fill="var(--fill-0, white)"/>
</g>
</svg>
