<svg preserveAspectRatio="none" width="100%" height="100%" overflow="visible" style="display: block;" viewBox="0 0 20.4346 20.4349" fill="none" xmlns="http://www.w3.org/2000/svg">
<g id="Group">
<g id="Vector">
</g>
<path id="Vector_2" d="M10.1258 10.1254L6.5898 6.59045C4.4378 4.43745 9.0198 0.535447 11.2998 2.81445L14.3678 5.88345M11.2998 2.81445C10.5768 2.09245 10.4848 1.80345 11.8928 1.28645C15.8268 -0.153553 20.3148 4.12645 19.2838 8.18645C18.6858 10.5434 17.0698 12.9984 15.0748 15.0754C12.9988 17.0694 10.5438 18.6854 8.1858 19.2844C4.1258 20.3144 -0.154197 15.8264 1.2868 11.8934C1.8028 10.4854 2.0908 10.5764 2.8138 11.2994M2.8138 11.2994C0.535803 9.02045 4.4378 4.43845 6.5898 6.59145M2.8138 11.2994L5.8838 14.3694" stroke="var(--stroke-0, white)" stroke-width="2" stroke-linecap="square"/>
</g>
</svg>
