<svg preserveAspectRatio="none" width="100%" height="100%" overflow="visible" style="display: block;" viewBox="0 0 28 29" fill="none" xmlns="http://www.w3.org/2000/svg">
<g id="Icon">
<path id="Vector" d="M23.1668 24.875V15.2084C23.1668 14.5674 22.9122 13.9527 22.459 13.4995C22.0058 13.0463 21.3911 12.7917 20.7502 12.7917H6.25016C5.60922 12.7917 4.99453 13.0463 4.54132 13.4995C4.08811 13.9527 3.8335 14.5674 3.8335 15.2084V24.875" stroke="var(--stroke-0, white)" stroke-width="1.8" stroke-linecap="round" stroke-linejoin="round"/>
<path id="Vector_2" d="M3.8335 18.8333C3.8335 18.8333 4.43766 17.625 6.25016 17.625C8.06266 17.625 9.271 20.0417 11.0835 20.0417C12.896 20.0417 14.1043 17.625 15.9168 17.625C17.7293 17.625 18.9377 20.0417 20.7502 20.0417C22.5627 20.0417 23.1668 18.8333 23.1668 18.8333" stroke="var(--stroke-0, white)" stroke-width="1.8" stroke-linecap="round" stroke-linejoin="round"/>
<path id="Vector_3" d="M1.4165 24.875H25.5832" stroke="var(--stroke-0, white)" stroke-width="1.8" stroke-linecap="round" stroke-linejoin="round"/>
<path id="Vector_4" d="M7.4585 9.16669V12.7917" stroke="var(--stroke-0, white)" stroke-width="1.8" stroke-linecap="round" stroke-linejoin="round"/>
<path id="Vector_5" d="M13.5 9.16669V12.7917" stroke="var(--stroke-0, white)" stroke-width="1.8" stroke-linecap="round" stroke-linejoin="round"/>
<path id="Vector_6" d="M19.5415 9.16669V12.7917" stroke="var(--stroke-0, white)" stroke-width="1.8" stroke-linecap="round" stroke-linejoin="round"/>
<path id="Vector_7" d="M7.4585 4.33331H7.46874" stroke="var(--stroke-0, white)" stroke-width="1.8" stroke-linecap="round" stroke-linejoin="round"/>
<path id="Vector_8" d="M13.5 4.33331H13.5102" stroke="var(--stroke-0, white)" stroke-width="1.8" stroke-linecap="round" stroke-linejoin="round"/>
<path id="Vector_9" d="M19.5415 4.33331H19.5517" stroke="var(--stroke-0, white)" stroke-width="1.8" stroke-linecap="round" stroke-linejoin="round"/>
</g>
</svg>
