<svg preserveAspectRatio="none" width="100%" height="100%" overflow="visible" style="display: block;" viewBox="0 0 24 24" fill="none" xmlns="http://www.w3.org/2000/svg">
<g id="ic:outline-egg-alt">
<path id="Vector" d="M19 9C17 7 15.99 2 9.97 2C4.95 2 1.94 6 2 11.52C2.06 17.04 6.96 19 9.97 19C11.98 19 11.98 22 15.99 22C19 22 22 19 22 15.02C22 12 21.01 11 19 9ZM15.99 20C14.5 20 14.03 19.5 13.31 18.74C12.66 18.05 11.66 17 9.97 17C8.33 17 4.05 16.01 4 11.5C3.97 8.99 4.68 6.88 5.99 5.55C7.01 4.52 8.35 4 9.97 4C13.31 4 14.48 5.86 15.83 8.02C16.38 8.9 16.9 9.73 17.59 10.41C19.49 12.3 20 12.81 20 15.02C20 17.87 17.88 20 15.99 20Z" fill="var(--fill-0, white)"/>
<path id="Vector_2" d="M12 15.5C13.933 15.5 15.5 13.933 15.5 12C15.5 10.067 13.933 8.5 12 8.5C10.067 8.5 8.5 10.067 8.5 12C8.5 13.933 10.067 15.5 12 15.5Z" fill="var(--fill-0, white)"/>
</g>
</svg>
