<svg preserveAspectRatio="none" width="100%" height="100%" overflow="visible" style="display: block;" viewBox="0 0 24 24" fill="none" xmlns="http://www.w3.org/2000/svg">
<g id="Icon">
<path id="Vector" d="M16.4 13.7C17.2202 13.0836 17.8828 12.2818 18.3337 11.3602C18.7845 10.4386 19.0108 9.4234 18.9941 8.39757C18.9773 7.37173 18.7179 6.36443 18.2372 5.45806C17.7565 4.55169 17.068 3.77199 16.2281 3.18274C15.3882 2.59349 14.4208 2.21143 13.4049 2.0678C12.389 1.92417 11.3536 2.02306 10.3833 2.35637C9.41293 2.68969 8.53529 3.24796 7.82212 3.98553C7.10895 4.7231 6.5805 5.61902 6.28 6.6C5.18 9.73 5.5 10.5 3.1 12.68C2.62176 13.0721 2.27637 13.6024 2.11111 14.1983C1.94584 14.7942 1.96878 15.4266 2.17677 16.009C2.38477 16.5914 2.76766 17.0953 3.27304 17.4517C3.77842 17.8081 4.38159 17.9996 5 18C9 18 13.4 16.2 16.4 13.7Z" stroke="var(--stroke-0, white)" stroke-width="1.8" stroke-linecap="round" stroke-linejoin="round"/>
<path id="Vector_2" d="M18.5 6L20.69 10.5C21.1092 11.7889 21.1137 13.1767 20.7029 14.4683C20.2921 15.7598 19.4867 16.8901 18.4 17.7C15.4 20.2 11 22 7 22C6.44325 21.9992 5.89769 21.8436 5.42438 21.5504C4.95107 21.2572 4.56868 20.8381 4.32 20.34L2.4 16.5" stroke="var(--stroke-0, white)" stroke-width="1.8" stroke-linecap="round" stroke-linejoin="round"/>
<path id="Vector_3" d="M12.5 11C13.8807 11 15 9.88071 15 8.5C15 7.11929 13.8807 6 12.5 6C11.1193 6 10 7.11929 10 8.5C10 9.88071 11.1193 11 12.5 11Z" stroke="var(--stroke-0, white)" stroke-width="1.8" stroke-linecap="round" stroke-linejoin="round"/>
</g>
</svg>
