<svg preserveAspectRatio="none" width="100%" height="100%" overflow="visible" style="display: block;" viewBox="0 0 19 19" fill="none" xmlns="http://www.w3.org/2000/svg">
<g id="Icon">
<path id="Vector" d="M4.05017 3.249C4.03864 3.13873 4.0504 3.02727 4.08468 2.92184C4.11897 2.8164 4.17502 2.71935 4.2492 2.63695C4.32339 2.55456 4.41405 2.48866 4.51532 2.44354C4.61659 2.39841 4.72621 2.37506 4.83708 2.375H14.1629C14.2739 2.37505 14.3836 2.39842 14.4849 2.4436C14.5862 2.48877 14.6769 2.55473 14.7511 2.63722C14.8253 2.7197 14.8813 2.81685 14.9156 2.92238C14.9498 3.02791 14.9615 3.13946 14.9498 3.24979L13.6088 15.9996C13.5677 16.3887 13.384 16.7488 13.093 17.0105C12.8021 17.2722 12.4246 17.4169 12.0333 17.4167H6.96667C6.57402 17.4188 6.19457 17.275 5.90199 17.0132C5.6094 16.7513 5.42456 16.3901 5.38333 15.9996L4.05017 3.249Z" stroke="var(--stroke-0, white)" stroke-width="1.8" stroke-linecap="round" stroke-linejoin="round"/>
<path id="Vector_2" d="M4.75 9.5C5.43517 8.98612 6.26853 8.70833 7.125 8.70833C7.98147 8.70833 8.81483 8.98612 9.5 9.5C10.1852 10.0139 11.0185 10.2917 11.875 10.2917C12.7315 10.2917 13.5648 10.0139 14.25 9.5" stroke="var(--stroke-0, white)" stroke-width="1.8" stroke-linecap="round" stroke-linejoin="round"/>
</g>
</svg>
