<svg preserveAspectRatio="none" width="100%" height="100%" overflow="visible" style="display: block;" viewBox="0 0 30.7678 19.5003" fill="none" xmlns="http://www.w3.org/2000/svg">
<g id="Group 70667">
<path id="Vector 11" d="M3.44175 7.34124L3.41284 7.34242C2.04629 7.39839 1 8.01461 1 9.89466C1 12.2447 5.00832 12.7329 7.4817 14.0057C9.70407 15.1494 9.65994 18.8454 16.1023 18.4743C22.5446 18.1033 22.7721 13.8859 25.8634 12.0426C27.5227 11.0531 29.7678 10.8348 29.7678 8.45563C29.7678 5.98187 27.3275 5.85818 25.4729 5.85818C24.1064 5.85818 23.5207 5.6108 21.0804 3.01335C18.6401 0.415906 12.1002 -0.0788544 8.58622 4.00285C5.79489 7.24514 4.79355 7.28604 3.44175 7.34124Z" stroke="var(--stroke-0, white)" stroke-width="2"/>
<path id="Ellipse 3470" d="M15.4189 5.59299C18.6031 5.59316 20.8505 7.69908 20.8506 9.92209C20.8506 12.1452 18.6032 14.251 15.4189 14.2512C12.2345 14.2512 9.98633 12.1452 9.98633 9.92209C9.98642 7.69899 12.2346 5.59299 15.4189 5.59299Z" stroke="var(--stroke-0, white)" stroke-width="2"/>
</g>
</svg>
