<svg preserveAspectRatio="none" width="100%" height="100%" overflow="visible" style="display: block;" viewBox="0 0 25.5 22.4997" fill="none" xmlns="http://www.w3.org/2000/svg">
<g id="Layer_1">
<path id="Vector" d="M0.25 13.333C0.389648 13.0585 0.365723 12.7489 0.428711 12.4576C0.810059 10.6901 1.63672 9.15304 2.77246 7.7777C3.9783 6.31267 5.48319 5.12961 7.18359 4.30993C7.26857 4.27488 7.34398 4.21965 7.40346 4.1489C7.46295 4.07816 7.50477 3.99396 7.52539 3.90341C7.58057 3.68976 7.65479 3.48057 7.72705 3.27137C8.12549 2.1166 9.27344 1.49941 10.4341 1.83718C10.6455 1.89851 10.6572 1.78278 10.7109 1.65321C11.3154 0.19182 13.0781 -0.212227 14.2451 0.84314C14.4996 1.07468 14.6909 1.36863 14.8008 1.69673C14.8496 1.83718 14.9023 1.87922 15.0615 1.83422C16.2266 1.50336 17.4082 2.10276 17.7559 3.27434C17.9463 3.91726 18.2734 4.29113 18.8682 4.6121C21.0977 5.81385 22.8594 7.53488 24.083 9.79052C24.6748 10.8622 25.0546 12.0404 25.2012 13.2593C25.2061 13.3038 25.1846 13.3621 25.25 13.3824V14.8166C25.187 14.8389 25.2065 14.8957 25.2012 14.9412C25.1559 15.3164 25.0799 15.6871 24.9741 16.0495C24.4492 17.82 23.3096 19.0945 21.8003 20.0603C20.5039 20.8897 19.0801 21.407 17.5903 21.7447C16.0767 22.088 14.5444 22.2358 12.9956 22.2487C11.2012 22.2635 9.42432 22.1132 7.67578 21.6879C6.09375 21.3031 4.59229 20.7195 3.25732 19.7591C1.83154 18.732 0.826172 17.4006 0.418457 15.647C0.353027 15.371 0.353027 15.0832 0.25 14.8166V13.333ZM12.7012 20.7833C14.1768 20.772 15.5923 20.6548 16.9888 20.3521C18.5552 20.0133 20.0469 19.4931 21.3833 18.5608C23.3032 17.2206 24.1387 15.1326 23.6533 12.8172C23.2446 10.8667 22.2183 9.27619 20.8398 7.89541C19.8057 6.86521 18.5953 6.03403 17.2676 5.44244C17.1398 5.38951 17.0258 5.30745 16.9344 5.20263C16.843 5.09782 16.7768 4.97308 16.7407 4.8381C16.6431 4.50033 16.5229 4.16799 16.4106 3.83417C16.1797 3.14625 15.5708 3.00778 15.0796 3.53052C14.6221 4.01715 14.0054 3.88412 13.7788 3.24714C13.6616 2.9153 13.5615 2.57703 13.4419 2.24617C13.3179 1.89999 13.0767 1.72739 12.7495 1.72789C12.4224 1.72838 12.1816 1.90147 12.0571 2.24716C11.9385 2.57851 11.8384 2.91678 11.7207 3.24863C11.4961 3.88412 10.875 4.01616 10.4209 3.52953C9.94043 3.0152 9.32324 3.14576 9.09521 3.81241C8.98096 4.14574 8.86377 4.47857 8.76709 4.81733C8.72972 4.96055 8.65978 5.09292 8.56288 5.20387C8.46597 5.31482 8.34477 5.40126 8.20898 5.45629C6.88102 6.04578 5.67245 6.8795 4.64453 7.91519C3.18604 9.38696 2.10986 11.0803 1.79102 13.1856C1.55713 14.732 1.86426 16.1484 2.85205 17.3794C3.76221 18.5134 4.9751 19.2018 6.29639 19.7072C8.37402 20.501 10.5444 20.7631 12.7012 20.7833Z" fill="var(--fill-0, white)" stroke="var(--stroke-0, white)" stroke-width="0.5"/>
<path id="Vector_2" d="M8.27148 8.89772C8.13615 8.89588 8.00433 8.85385 7.89236 8.77684C7.78039 8.69983 7.6932 8.59123 7.6416 8.4645C7.51807 8.19546 7.54102 7.91555 7.74268 7.7019C8.25439 7.16087 8.77734 6.62923 9.31299 6.11242C9.58447 5.85081 10.0239 5.88988 10.2861 6.15594C10.5483 6.42201 10.5957 6.8587 10.335 7.1396C9.82617 7.68361 9.29492 8.20535 8.76856 8.73205C8.6333 8.86558 8.45703 8.90415 8.27148 8.89772Z" fill="var(--fill-0, white)" stroke="var(--stroke-0, white)" stroke-width="0.5"/>
<path id="Vector_3" d="M17.9258 8.17717C17.9087 8.4645 17.7793 8.70089 17.502 8.82849C17.2388 8.95014 16.9604 8.94619 16.748 8.74046C16.2075 8.21722 15.6738 7.68361 15.1616 7.13367C14.9004 6.85425 14.9463 6.423 15.2178 6.15149C15.4746 5.89532 15.9097 5.84932 16.1724 6.10204C16.7153 6.6228 17.2373 7.16631 17.7617 7.70685C17.8799 7.82653 17.9214 7.99023 17.9258 8.17717Z" fill="var(--fill-0, white)" stroke="var(--stroke-0, white)" stroke-width="0.5"/>
<path id="Vector_4" d="M13.4824 7.43188C13.4824 7.66976 13.4878 7.90863 13.4824 8.1465C13.4702 8.58715 13.1602 8.9002 12.7466 8.89822C12.333 8.89624 12.0264 8.58072 12.02 8.13711C12.0132 7.65245 12.0127 7.1673 12.02 6.68264C12.0273 6.25683 12.3374 5.94823 12.7422 5.94477C13.1567 5.94082 13.4707 6.25535 13.481 6.69204C13.4873 6.93832 13.4824 7.1851 13.4824 7.43188Z" fill="var(--fill-0, white)" stroke="var(--stroke-0, white)" stroke-width="0.5"/>
</g>
</svg>
