<svg preserveAspectRatio="none" width="100%" height="100%" overflow="visible" style="display: block;" viewBox="0 0 22.5359 22.5369" fill="none" xmlns="http://www.w3.org/2000/svg">
<path id="Vector" d="M0.635867 21.9L5.46242 17.0815M16.2376 6.32067C15.6412 5.72485 15.3064 4.91692 15.3067 4.07462C15.3071 3.23233 15.6425 2.42466 16.2394 1.8293C16.8362 1.23395 17.6454 0.899667 18.4891 0.9C19.3328 0.900334 20.1419 1.23525 20.7382 1.83108C21.3198 2.42969 21.6422 3.23268 21.6358 4.06661C21.6293 4.90055 21.2946 5.69848 20.7038 6.28806C20.113 6.87764 19.3136 7.21154 18.4783 7.21764C17.6429 7.22374 16.8369 6.90156 16.2376 6.32067ZM15.3399 7.22037V12.0105H10.5401V7.21859L15.3399 7.22037ZM7.53909 10.8103L11.7423 15.0065L7.99681 18.7457L3.79717 14.5531L7.53909 10.8103Z" stroke="var(--stroke-0, white)" stroke-width="1.8" stroke-linejoin="round"/>
</svg>
