<svg preserveAspectRatio="none" width="100%" height="100%" overflow="visible" style="display: block;" viewBox="0 0 29.88 29.86" fill="none" xmlns="http://www.w3.org/2000/svg">
<g id="Layer_1" clip-path="url(#clip0_0_15)">
<path id="Vector" d="M12.69 29.86H9.69C9.22 29.71 8.69 29.55 8.26 29.42C5.96002 28.7985 3.91615 27.4642 2.4219 25.6086C0.927647 23.753 0.0598896 21.4716 -0.0567574 19.092C-0.173404 16.7124 0.46706 14.357 1.77266 12.3641C3.07826 10.3713 4.98183 8.84342 7.21 8C7.40345 7.93978 7.58015 7.83518 7.72599 7.69455C7.87184 7.55391 7.98279 7.38113 8.05 7.19C9.04863 4.62605 10.9492 2.51505 13.3946 1.25368C15.84 -0.00769908 18.6619 -0.332609 21.33 0.34C23.4596 0.872314 25.3845 2.02192 26.8629 3.64448C28.3413 5.26704 29.3075 7.29022 29.64 9.46C29.64 9.63 29.71 9.71 29.88 9.7V13C29.61 13 29.69 13.26 29.66 13.41C29.3027 15.2858 28.4721 17.0393 27.2471 18.5042C26.022 19.969 24.4431 21.0966 22.66 21.78C22.4683 21.8436 22.2933 21.9494 22.148 22.0896C22.0026 22.2297 21.8905 22.4008 21.82 22.59C21.2483 24.0801 20.3658 25.4313 19.2312 26.5538C18.0967 27.6762 16.7361 28.5442 15.24 29.1C14.42 29.45 13.52 29.54 12.69 29.86ZM20.9 18.58C20.9079 16.6819 20.3518 14.8242 19.3022 13.2426C18.2525 11.6611 16.7568 10.427 15.0046 9.69697C13.2525 8.96693 11.323 8.77385 9.46091 9.14222C7.59885 9.51059 5.88819 10.4238 4.546 11.766C3.20381 13.1082 2.29059 14.8188 1.92222 16.6809C1.55385 18.543 1.74693 20.4725 2.47697 22.2246C3.20701 23.9768 4.4411 25.4725 6.02264 26.5222C7.60418 27.5718 9.46187 28.1279 11.36 28.12C13.8894 28.1174 16.3144 27.1114 18.1029 25.3229C19.8914 23.5344 20.8974 21.1094 20.9 18.58ZM9.82 7.34C10.4831 7.25515 11.1516 7.21838 11.82 7.23C11.8841 7.23621 11.9483 7.21839 12 7.18C12.58 6.56 13.44 6.27 13.86 5.47C14.0533 5.09876 14.3494 4.79102 14.713 4.58355C15.0765 4.37608 15.492 4.27764 15.91 4.3C16.3854 4.32635 16.8591 4.22264 17.28 4C17.6658 3.7555 18.1132 3.62568 18.57 3.62568C19.0268 3.62568 19.4742 3.7555 19.86 4C20.2714 4.24318 20.7421 4.36778 21.22 4.36C21.6227 4.34609 22.0216 4.44204 22.374 4.63759C22.7263 4.83313 23.0188 5.12089 23.22 5.47C23.5069 5.96824 23.9166 6.38479 24.41 6.68C24.7632 6.87736 25.0549 7.16873 25.2526 7.52176C25.4503 7.8748 25.5463 8.27571 25.53 8.68C25.5523 9.20946 25.7145 9.72356 26 10.17C26.199 10.5042 26.304 10.886 26.304 11.275C26.304 11.664 26.199 12.0458 26 12.38C25.7187 12.904 25.5614 13.4856 25.54 14.08C25.5209 14.4641 25.4113 14.8382 25.2202 15.1719C25.029 15.5055 24.7617 15.7893 24.44 16C23.38 16.75 22.44 17.63 22.61 19.1C22.615 19.1799 22.615 19.2601 22.61 19.34C22.61 19.53 22.46 19.77 22.61 19.9C22.76 20.03 22.97 19.81 23.13 19.72C24.468 18.9946 25.6141 17.9611 26.4735 16.705C27.333 15.4489 27.8812 14.0063 28.0727 12.4964C28.2643 10.9865 28.0937 9.45274 27.5751 8.02183C27.0565 6.59093 26.2048 5.304 25.0904 4.26743C23.9759 3.23086 22.6308 2.47443 21.1661 2.06066C19.7015 1.64689 18.1594 1.58767 16.6673 1.88789C15.1752 2.18812 13.776 2.83916 12.5854 3.78721C11.3947 4.73526 10.4468 5.95308 9.82 7.34ZM22.25 15.57C22.5226 15.2478 22.8644 14.9914 23.25 14.82C23.455 14.7243 23.6266 14.5692 23.7425 14.3749C23.8584 14.1805 23.9132 13.9559 23.9 13.73C23.8823 13.0533 24.0706 12.3872 24.44 11.82C24.5519 11.6774 24.6127 11.5013 24.6127 11.32C24.6127 11.1387 24.5519 10.9626 24.44 10.82C24.0417 10.2327 23.8548 9.52747 23.91 8.82C23.9247 8.65411 23.8898 8.48758 23.8097 8.34157C23.7296 8.19556 23.6078 8.07667 23.46 8C22.7903 7.61971 22.2345 7.06731 21.85 6.4C21.7841 6.27748 21.6859 6.17539 21.566 6.10486C21.4461 6.03432 21.3091 5.99805 21.17 6C20.4097 5.98979 19.664 5.79046 19 5.42C18.8913 5.34942 18.7646 5.31185 18.635 5.31185C18.5054 5.31185 18.3787 5.34942 18.27 5.42C17.5576 5.82351 16.7483 6.02411 15.93 6C15.8107 5.99598 15.6924 6.02344 15.5871 6.07961C15.4818 6.13579 15.3931 6.21869 15.33 6.32L14.42 7.65C16.2878 8.20143 17.9855 9.21699 19.3547 10.6019C20.7239 11.9869 21.7199 13.696 22.25 15.57Z" fill="var(--fill-0, white)"/>
<path id="Vector_2" d="M11.29 26.32C10.08 25.71 8.59 25.84 7.49 25.17C6.41033 24.3644 5.44194 23.4195 4.61 22.36C4.42346 22.1251 4.3308 21.8293 4.35 21.53C4.33839 20.7959 4.14971 20.0755 3.8 19.43C3.64314 19.1171 3.5682 18.7695 3.58219 18.4197C3.59618 18.0699 3.69865 17.7294 3.88 17.43C4.17266 16.9147 4.32764 16.3326 4.33 15.74C4.32701 15.3603 4.42557 14.9868 4.61545 14.658C4.80534 14.3292 5.07965 14.0572 5.41 13.87C5.92013 13.563 6.34887 13.1376 6.66 12.63C6.86086 12.2813 7.15354 11.9943 7.50618 11.8003C7.85882 11.6064 8.25791 11.5129 8.66 11.53C9.19721 11.5305 9.72501 11.389 10.19 11.12C10.5475 10.9038 10.9573 10.7896 11.375 10.7896C11.7927 10.7896 12.2025 10.9038 12.56 11.12C13.0277 11.3813 13.5543 11.5189 14.09 11.52C14.4794 11.5127 14.8634 11.6123 15.2001 11.808C15.5369 12.0037 15.8136 12.288 16 12.63C16.3217 13.1535 16.764 13.5924 17.29 13.91C17.6036 14.0968 17.8617 14.364 18.0375 14.684C18.2133 15.004 18.3005 15.3651 18.29 15.73C18.2988 16.3433 18.4603 16.9448 18.76 17.48C18.9487 17.8068 19.048 18.1776 19.048 18.555C19.048 18.9324 18.9487 19.3032 18.76 19.63C18.4669 20.1488 18.312 20.7342 18.31 21.33C18.3133 21.7084 18.2148 22.0807 18.0248 22.4079C17.8348 22.7352 17.5603 23.0053 17.23 23.19C16.7247 23.5179 16.3034 23.9597 16 24.48C15.8221 24.7882 15.5652 25.0433 15.2559 25.2191C14.9465 25.3949 14.5958 25.485 14.24 25.48C13.5664 25.4889 12.906 25.6678 12.32 26C12.005 26.1825 11.653 26.2918 11.29 26.32ZM14.29 16.19C14.1684 16.1815 14.0478 16.1614 13.93 16.13C13.5 16.02 13.15 15.81 13.16 15.3C13.17 14.79 13.54 14.55 14.01 14.49C14.23 14.49 14.45 14.49 14.66 14.41C14.87 14.33 14.97 14.29 14.87 14.13C14.64 13.77 14.52 13.26 13.94 13.25C13.1461 13.2491 12.3665 13.0387 11.68 12.64C11.5642 12.5639 11.4286 12.5233 11.29 12.5233C11.1514 12.5233 11.0158 12.5639 10.9 12.64C10.2662 13.0143 9.54601 13.2176 8.81 13.23C8.62089 13.2277 8.43501 13.2791 8.27394 13.3783C8.11286 13.4774 7.9832 13.6202 7.9 13.79C7.5738 14.3815 7.07494 14.8594 6.47 15.16C6.32389 15.2251 6.20033 15.3321 6.1149 15.4673C6.02948 15.6026 5.98602 15.7601 5.99 15.92C5.99127 16.6926 5.78768 17.4517 5.4 18.12C5.31744 18.2445 5.2734 18.3906 5.2734 18.54C5.2734 18.6894 5.31744 18.8355 5.4 18.96C5.79402 19.5496 5.98372 20.2522 5.94 20.96C5.92124 21.1662 5.96697 21.3732 6.07086 21.5523C6.17475 21.7314 6.33169 21.8739 6.52 21.96C7.13983 22.2622 7.65521 22.7428 8 23.34C8.08207 23.5108 8.21383 23.6528 8.37801 23.7473C8.54218 23.8419 8.7311 23.8847 8.92 23.87C9.62172 23.8568 10.3136 24.0367 10.92 24.39C11.14 24.52 11.4 24.66 11.64 24.5C12.4098 24.0473 13.2869 23.809 14.18 23.81C14.2403 23.8168 14.3013 23.8052 14.3549 23.7766C14.4084 23.748 14.4521 23.7039 14.48 23.65C14.54 23.51 14.4 23.45 14.31 23.38L14 23.1C13.53 22.63 13.46 22.1 13.81 21.75C14.16 21.4 14.66 21.38 15.2 21.87C15.35 22.01 15.49 22.2 15.75 22.15C15.9948 22.0794 16.2134 21.9385 16.3787 21.7447C16.5441 21.5509 16.6488 21.3128 16.68 21.06C16.657 20.3531 16.8488 19.6558 17.23 19.06C17.3273 18.9448 17.3872 18.8026 17.4015 18.6525C17.4158 18.5024 17.3838 18.3515 17.31 18.22C16.8723 17.4886 16.6407 16.6524 16.64 15.8C16.64 15.41 16.46 15.3 16.12 15.58C15.6105 15.9818 14.9788 16.1971 14.33 16.19H14.29Z" fill="var(--fill-0, white)"/>
<path id="Vector_3" d="M8.92 20.29C8.54941 20.3109 8.17948 20.2386 7.84406 20.0796C7.50865 19.9206 7.21844 19.6801 7 19.38C6.93062 19.3021 6.87737 19.2112 6.84331 19.1126C6.80926 19.0139 6.79507 18.9095 6.80158 18.8054C6.80809 18.7013 6.83516 18.5995 6.88123 18.5059C6.9273 18.4122 6.99146 18.3287 7.07 18.26C7.13931 18.1817 7.22366 18.1181 7.31804 18.073C7.41243 18.0279 7.51491 18.0023 7.6194 17.9976C7.72389 17.993 7.82826 18.0093 7.92628 18.0458C8.0243 18.0823 8.11399 18.1381 8.19 18.21C8.3157 18.344 8.47351 18.4437 8.6485 18.4997C8.82348 18.5557 9.00986 18.5661 9.19 18.53C9.29219 18.5052 9.39844 18.5023 9.50186 18.5212C9.60528 18.5402 9.70355 18.5807 9.79031 18.6401C9.87706 18.6995 9.95035 18.7765 10.0054 18.8661C10.0605 18.9556 10.0961 19.0558 10.11 19.16C10.1407 19.2611 10.1511 19.3673 10.1405 19.4724C10.1299 19.5776 10.0986 19.6796 10.0484 19.7726C9.99823 19.8655 9.9301 19.9476 9.84798 20.0141C9.76586 20.0806 9.67138 20.1302 9.57 20.16C9.36584 20.2516 9.14368 20.296 8.92 20.29Z" fill="var(--fill-0, white)"/>
<path id="Vector_4" d="M12.16 21.78C12.1688 21.8974 12.1529 22.0154 12.1132 22.1262C12.0735 22.237 12.0109 22.3383 11.9296 22.4234C11.8482 22.5085 11.7499 22.5756 11.641 22.6202C11.532 22.6649 11.4149 22.6861 11.2972 22.6826C11.1795 22.6791 11.0639 22.6509 10.9578 22.5998C10.8518 22.5487 10.7576 22.4759 10.6815 22.386C10.6054 22.2962 10.549 22.1914 10.516 22.0784C10.483 21.9654 10.4742 21.8467 10.49 21.73C10.4812 21.6126 10.4971 21.4946 10.5368 21.3838C10.5765 21.273 10.6391 21.1717 10.7204 21.0866C10.8018 21.0015 10.9001 20.9344 11.009 20.8898C11.118 20.8451 11.2351 20.8239 11.3528 20.8274C11.4705 20.8309 11.5861 20.8591 11.6922 20.9102C11.7982 20.9613 11.8924 21.0341 11.9685 21.124C12.0446 21.2138 12.101 21.3186 12.134 21.4316C12.167 21.5446 12.1758 21.6633 12.16 21.78Z" fill="var(--fill-0, white)"/>
<path id="Vector_5" d="M10.18 15.67C10.18 15.8928 10.0915 16.1064 9.93397 16.264C9.77644 16.4215 9.56278 16.51 9.34 16.51C9.11722 16.51 8.90356 16.4215 8.74603 16.264C8.5885 16.1064 8.5 15.8928 8.5 15.67C8.5 15.4472 8.5885 15.2336 8.74603 15.076C8.90356 14.9185 9.11722 14.83 9.34 14.83C9.56278 14.83 9.77644 14.9185 9.93397 15.076C10.0915 15.2336 10.18 15.4472 10.18 15.67Z" fill="var(--fill-0, white)"/>
<path id="Vector_6" d="M14.85 18C14.8422 18.2272 14.7457 18.4424 14.5812 18.5994C14.4168 18.7564 14.1974 18.8427 13.97 18.84C13.8574 18.8337 13.7472 18.805 13.6458 18.7556C13.5444 18.7063 13.4539 18.6373 13.3794 18.5526C13.3049 18.4679 13.2481 18.3692 13.2121 18.2623C13.1762 18.1554 13.1619 18.0425 13.17 17.93C13.1713 17.8219 13.1941 17.7151 13.2373 17.616C13.2805 17.5169 13.343 17.4274 13.4213 17.3529C13.4996 17.2783 13.592 17.2202 13.6931 17.1819C13.7942 17.1436 13.902 17.126 14.01 17.13C14.1237 17.127 14.2368 17.1477 14.342 17.1908C14.4473 17.2338 14.5425 17.2983 14.6215 17.3802C14.7005 17.462 14.7616 17.5593 14.8009 17.666C14.8403 17.7728 14.857 17.8865 14.85 18Z" fill="var(--fill-0, white)"/>
</g>
<defs>
<clipPath id="clip0_0_15">
<rect width="29.88" height="29.86" fill="white"/>
</clipPath>
</defs>
</svg>
