<svg preserveAspectRatio="none" width="100%" height="100%" overflow="visible" style="display: block;" viewBox="0 0 20 20" fill="none" xmlns="http://www.w3.org/2000/svg">
<g id="Icon">
<path id="Vector" d="M9.16667 16.6667C7.70338 16.6711 6.29188 16.1254 5.2121 15.1378C4.13232 14.1503 3.46314 12.793 3.33728 11.3351C3.21142 9.87722 3.63808 8.4253 4.53262 7.26728C5.42717 6.10927 6.72427 5.32975 8.16667 5.08333C12.9167 4.16667 14.1667 3.73333 15.8333 1.66667C16.6667 3.33333 17.5 5.15 17.5 8.33333C17.5 12.9167 13.5167 16.6667 9.16667 16.6667Z" stroke="var(--stroke-0, white)" stroke-width="1.8" stroke-linecap="round" stroke-linejoin="round"/>
<path id="Vector_2" d="M1.66667 17.5C1.66667 15 3.20833 13.0333 5.9 12.5C7.91667 12.1 10 10.8333 10.8333 10" stroke="var(--stroke-0, white)" stroke-width="1.8" stroke-linecap="round" stroke-linejoin="round"/>
</g>
</svg>
