<svg preserveAspectRatio="none" width="100%" height="100%" overflow="visible" style="display: block;" viewBox="0 0 25 25" fill="none" xmlns="http://www.w3.org/2000/svg">
<g id="boxicons:taco">
<path id="Vector" d="M14.9165 4.75H10.0832C5.11692 4.75 0.984416 9.84917 0.464833 16.6279C0.416499 17.3046 0.646083 17.9812 1.10525 18.4767C1.56442 18.9721 2.20483 19.25 2.86942 19.25H20.9461V19.2258C21.9369 19.1775 22.8794 18.7304 23.5198 17.9692C24.2086 17.1596 24.4986 16.1083 24.3294 15.0692C23.3265 8.99125 19.4598 4.73792 14.9044 4.73792L14.9165 4.75ZM2.8815 16.8092C3.29233 11.4079 6.45817 7.16667 10.0832 7.16667C10.3127 7.16667 10.5303 7.17875 10.7478 7.215C10.8323 7.22708 10.929 7.25125 11.0136 7.26333C11.1465 7.2875 11.2673 7.31166 11.3882 7.34791C11.4969 7.37208 11.6057 7.42042 11.7023 7.45667C11.8111 7.49292 11.9078 7.52917 12.0165 7.56542C12.1253 7.61375 12.234 7.67417 12.3548 7.7225C12.4515 7.77083 12.5361 7.80708 12.6327 7.8675C12.7415 7.92792 12.8503 8.00042 12.959 8.07292C13.0436 8.13333 13.1282 8.18167 13.2128 8.24208C13.3215 8.31458 13.4182 8.39917 13.5269 8.48375C13.6115 8.55625 13.6961 8.61667 13.7807 8.68917C13.8773 8.77375 13.974 8.87042 14.0707 8.96708C14.1553 9.05167 14.2398 9.13625 14.3123 9.22083C14.3969 9.3175 14.4936 9.41417 14.5782 9.52292C14.6628 9.61958 14.7353 9.71625 14.8198 9.81291C14.9044 9.92166 14.9769 10.0304 15.0615 10.1392C15.134 10.2479 15.2186 10.3567 15.2911 10.4654C15.3636 10.5742 15.4361 10.695 15.5086 10.8158C15.5811 10.9367 15.6536 11.0575 15.714 11.1783C15.7865 11.2992 15.8469 11.42 15.9073 11.5529C15.9677 11.6737 16.0282 11.8067 16.0886 11.9396C16.149 12.0725 16.2094 12.2054 16.2698 12.3504C16.3182 12.4712 16.3665 12.6042 16.4148 12.7371C16.4752 12.8942 16.5236 13.0392 16.584 13.1962C16.6203 13.3171 16.6565 13.45 16.7048 13.5708C16.7532 13.74 16.8015 13.9092 16.8498 14.0904C16.8861 14.2112 16.9103 14.3321 16.9344 14.4529C16.9828 14.6342 17.019 14.8275 17.0553 15.0087C17.0794 15.1296 17.1036 15.2625 17.1157 15.3833C17.1943 15.8642 17.2548 16.3479 17.2969 16.8333L2.89358 16.8092H2.8815ZM21.6953 16.4104C21.5831 16.5415 21.4442 16.6471 21.2879 16.72C21.1316 16.793 20.9615 16.8316 20.789 16.8333C20.1848 16.8333 19.6894 16.3621 19.6048 15.7217C19.6048 15.6371 19.5807 15.5646 19.5686 15.4921C19.5444 15.3471 19.5203 15.2142 19.4961 15.0812C19.4371 14.713 19.3686 14.3464 19.2907 13.9817C18.6503 11.2146 17.3936 8.87042 15.7382 7.25125C18.6986 7.77083 21.2361 11.0696 21.9611 15.48C22.0336 15.9392 21.8282 16.2654 21.6953 16.4225V16.4104Z" fill="var(--fill-0, white)"/>
<path id="Vector_2" d="M14.3127 13.2083C14.1524 13.2083 13.9988 13.2719 13.8855 13.3852C13.7721 13.4986 13.7085 13.6522 13.7085 13.8125C13.7085 13.9727 13.7721 14.1264 13.8855 14.2397C13.9988 14.353 14.1524 14.4166 14.3127 14.4166C14.4729 14.4166 14.6266 14.353 14.7399 14.2397C14.8532 14.1264 14.9168 13.9727 14.9168 13.8125C14.9168 13.6522 14.8532 13.4986 14.7399 13.3852C14.6266 13.2719 14.4729 13.2083 14.3127 13.2083ZM11.896 10.7916C11.7358 10.7916 11.5821 10.8553 11.4688 10.9686C11.3555 11.0819 11.2918 11.2356 11.2918 11.3958C11.2918 11.556 11.3555 11.7097 11.4688 11.823C11.5821 11.9363 11.7358 12 11.896 12C12.0562 12 12.2099 11.9363 12.3232 11.823C12.4365 11.7097 12.5002 11.556 12.5002 11.3958C12.5002 11.2356 12.4365 11.0819 12.3232 10.9686C12.2099 10.8553 12.0562 10.7916 11.896 10.7916ZM10.6877 13.2083C10.5274 13.2083 10.3738 13.2719 10.2605 13.3852C10.1471 13.4986 10.0835 13.6522 10.0835 13.8125C10.0835 13.9727 10.1471 14.1264 10.2605 14.2397C10.3738 14.353 10.5274 14.4166 10.6877 14.4166C10.8479 14.4166 11.0016 14.353 11.1149 14.2397C11.2282 14.1264 11.2918 13.9727 11.2918 13.8125C11.2918 13.6522 11.2282 13.4986 11.1149 13.3852C11.0016 13.2719 10.8479 13.2083 10.6877 13.2083Z" fill="var(--fill-0, white)"/>
</g>
</svg>
