<svg width="23" height="24" viewBox="0 0 23 24" fill="none" xmlns="http://www.w3.org/2000/svg">
  <path d="M2.5 14.5L4.5 20.5H18.5L20.5 14.5" stroke="white" stroke-width="1.5" stroke-linecap="round" stroke-linejoin="round"/>
  <path d="M2.5 14.5H20.5" stroke="white" stroke-width="1.5" stroke-linecap="round"/>
  <path d="M6.5 14.5V7.5C6.5 5.8 7.8 4.8 8.8 5.5C9.5 6 9.5 7.2 9.5 8.5V14.5" stroke="white" stroke-width="1.3" stroke-linecap="round"/>
  <path d="M10.5 14.5V6C10.5 4.2 11.9 3.2 12.9 4C13.6 4.5 13.6 6 13.6 7.5V14.5" stroke="white" stroke-width="1.3" stroke-linecap="round"/>
  <path d="M14.5 14.5V8C14.5 6.3 15.8 5.3 16.8 6C17.5 6.5 17.5 7.8 17.5 9.2V14.5" stroke="white" stroke-width="1.3" stroke-linecap="round"/>
  <path d="M18.5 8.5H21.5" stroke="white" stroke-width="1.5" stroke-linecap="round"/>
  <path d="M20 8.5V14.5" stroke="white" stroke-width="1.5" stroke-linecap="round"/>
  <path d="M19 8.5C18.2 10.2 17.2 12.2 16.2 13.8" stroke="white" stroke-width="1.2" stroke-linecap="round"/>
</svg>
