<svg preserveAspectRatio="none" width="100%" height="100%" overflow="visible" style="display: block;" viewBox="0 0 23 23" fill="none" xmlns="http://www.w3.org/2000/svg">
<g id="Icon">
<path id="Vector" d="M4.40833 12.5637L9.95708 9.4875C11.7683 8.48125 14.5475 11.1933 13.5125 13.0429L10.4267 18.6108C8.43333 22.195 0.757083 14.5954 4.40833 12.5637Z" stroke="var(--stroke-0, white)" stroke-width="1.7" stroke-linecap="round" stroke-linejoin="round"/>
<path id="Vector_2" d="M10.0625 9.10417L9.10417 6.90958C8.81667 6.21 8.43333 5.75 7.66667 5.75H4.3125C2.67375 5.75 1.91667 6.22917 1.91667 8.14583C1.99702 9.86488 2.6749 11.502 3.83333 12.7746" stroke="var(--stroke-0, white)" stroke-width="1.7" stroke-linecap="round" stroke-linejoin="round"/>
<path id="Vector_3" d="M7.66667 5.75C7.66667 4.26458 7.89667 1.91667 5.75 1.91667C3.83333 1.91667 3.35417 3.99625 3.35417 5.75" stroke="var(--stroke-0, white)" stroke-width="1.7" stroke-linecap="round" stroke-linejoin="round"/>
<path id="Vector_4" d="M13.8958 12.9375L16.0904 13.8958C16.79 14.1833 17.25 14.5667 17.25 15.3333V18.6875C17.25 20.3263 16.7708 21.0833 14.8542 21.0833C13.1351 21.003 11.498 20.3251 10.2254 19.1667" stroke="var(--stroke-0, white)" stroke-width="1.7" stroke-linecap="round" stroke-linejoin="round"/>
<path id="Vector_5" d="M17.25 15.3333C18.7354 15.3333 21.0833 15.1033 21.0833 17.25C21.0833 19.1667 19.0038 19.6458 17.25 19.6458" stroke="var(--stroke-0, white)" stroke-width="1.7" stroke-linecap="round" stroke-linejoin="round"/>
</g>
</svg>
