<svg preserveAspectRatio="none" width="100%" height="100%" overflow="visible" style="display: block;" viewBox="0 0 19.39 19.72" fill="none" xmlns="http://www.w3.org/2000/svg">
<g id="Layer_1" clip-path="url(#clip0_0_81)">
<path id="Vector" d="M7.46 19.71C6.02 19.71 4.57 19.71 3.13 19.71C2.90055 19.7371 2.66835 19.692 2.46579 19.5808C2.26323 19.4697 2.1004 19.2981 2 19.09C1.44 18 0.82 17 0.19 15.89C0.0618499 15.7276 -0.00785043 15.5268 -0.00785043 15.32C-0.00785043 15.1132 0.0618499 14.9124 0.19 14.75C0.272645 14.6267 0.304856 14.4764 0.28 14.33C0.250081 13.6183 0.39786 12.9103 0.71 12.27C0.934287 11.7884 1.30073 11.3871 1.76 11.12C1.90287 11.0551 2.01936 10.9435 2.09026 10.8035C2.16116 10.6635 2.18223 10.5036 2.15 10.35C2.15 8.4 2.08 6.44 2.07 4.49C2.07846 3.28106 2.35511 2.08907 2.88 1C2.91427 0.876243 2.97435 0.761141 3.05629 0.662261C3.13822 0.563381 3.24015 0.482962 3.35539 0.42629C3.47062 0.369618 3.59654 0.337976 3.72488 0.333445C3.85322 0.328914 3.98106 0.351596 4.1 0.4C4.21401 0.452326 4.31568 0.528163 4.39832 0.622539C4.48097 0.716914 4.54273 0.827695 4.57956 0.947616C4.61639 1.06754 4.62744 1.19389 4.61201 1.31838C4.59657 1.44288 4.555 1.5627 4.49 1.67C4.03057 2.71825 3.81188 3.85613 3.85 5C3.89 7 4 9 4 11C4.03286 11.3223 3.95043 11.6458 3.76736 11.9131C3.58428 12.1804 3.3124 12.3742 3 12.46C2.66201 12.6071 2.38136 12.8606 2.20083 13.1819C2.02029 13.5033 1.94977 13.8748 2 14.24C2 14.39 2.09 14.43 2.22 14.43H3.39C3.58 14.43 3.59 14.33 3.59 14.19C3.57036 13.7083 3.67954 13.2302 3.9063 12.8048C4.13306 12.3794 4.46918 12.0222 4.88 11.77C5.06 11.66 5.03 11.51 5.03 11.35C5 9 5 6.67 5 4.33C4.99473 3.04303 5.30004 1.77379 5.89 0.63C5.93547 0.51717 6.00358 0.414859 6.09014 0.329385C6.1767 0.24391 6.27986 0.177087 6.39325 0.133042C6.50664 0.0889973 6.62786 0.0686653 6.74942 0.0733018C6.87098 0.0779384 6.99029 0.107445 7.1 0.16C7.20735 0.212693 7.30283 0.286712 7.38061 0.377538C7.4584 0.468364 7.51686 0.57409 7.55242 0.688263C7.58798 0.802435 7.5999 0.922657 7.58745 1.04159C7.575 1.16052 7.53844 1.27567 7.48 1.38C6.87026 2.66665 6.60823 4.09058 6.72 5.51C6.79 7.63 6.91 9.74 6.82 11.86C6.84464 12.1535 6.77041 12.4468 6.60914 12.6932C6.44787 12.9397 6.20881 13.1251 5.93 13.22C5.73086 13.3048 5.56798 13.457 5.47 13.65C5.17 14.2 5.3 14.43 5.91 14.43H7.18C7.36 14.43 7.45 14.43 7.48 14.2C7.64136 13.4522 8.04196 12.7773 8.62115 12.2775C9.20035 11.7777 9.92661 11.4802 10.69 11.43C11.4931 11.3735 12.2924 11.584 12.9634 12.029C13.6344 12.4739 14.1395 13.1282 14.4 13.89C14.5038 14.2457 14.6624 14.5831 14.87 14.89C14.9627 15.018 15.0126 15.172 15.0126 15.33C15.0126 15.488 14.9627 15.642 14.87 15.77L12.87 19.23C12.7737 19.3897 12.6346 19.5193 12.4685 19.6041C12.3024 19.6889 12.1159 19.7256 11.93 19.71H7.46ZM7.46 16.2H2.74C2.49 16.2 2.41 16.2 2.57 16.47C2.83 16.88 3.07 17.3 3.3 17.73C3.33604 17.8004 3.39264 17.8582 3.46229 17.8957C3.53195 17.9332 3.61137 17.9487 3.69 17.94C6.22 17.94 8.76 17.94 11.3 17.94C11.3834 17.9469 11.4669 17.9274 11.5386 17.8843C11.6104 17.8413 11.6668 17.7768 11.7 17.7C11.92 17.29 12.15 16.89 12.4 16.5C12.65 16.11 12.5 16.19 12.21 16.19L7.46 16.2ZM11 14.43H12.1C12.28 14.43 12.56 14.52 12.62 14.43C12.68 14.34 12.47 14.07 12.33 13.91C12.1402 13.6795 11.8963 13.4996 11.6201 13.3862C11.3438 13.2729 11.0438 13.2296 10.7469 13.2603C10.4499 13.291 10.1651 13.3947 9.91785 13.5621C9.67064 13.7296 9.46869 13.9556 9.33 14.22C9.25 14.41 9.26 14.48 9.49 14.48L11 14.43Z" fill="var(--fill-0, white)"/>
<path id="Vector_2" d="M15.64 4.51C14.73 4.51 13.83 4.51 12.92 4.51C12.6 4.51 12.52 4.61 12.56 4.89C12.56 4.99 12.56 5.09 12.56 5.19C12.5741 5.3248 12.558 5.46105 12.5127 5.58881C12.4675 5.71656 12.3943 5.8326 12.2984 5.92844C12.2026 6.02427 12.0866 6.09749 11.9588 6.14275C11.831 6.188 11.6948 6.20414 11.56 6.19C11 6.19 10.44 6.19 9.88 6.19C9.59 6.19 9.53 6.28 9.54 6.55C9.54 7.66 9.54 8.76 9.54 9.87C9.54687 10 9.52512 10.13 9.47629 10.2507C9.42745 10.3715 9.35271 10.48 9.25734 10.5687C9.16198 10.6574 9.04831 10.7241 8.92436 10.764C8.80042 10.804 8.66921 10.8163 8.54 10.8C8.3354 10.7598 8.15171 10.6483 8.02168 10.4853C7.89165 10.3223 7.82372 10.1184 7.83 9.91C7.83 7.91 7.83 5.85 7.83 3.83C7.85005 2.65738 8.17393 1.51002 8.77 0.5C8.85831 0.299478 9.01673 0.138056 9.21556 0.0460048C9.41439 -0.0460464 9.63997 -0.0624038 9.85 0C10.0499 0.0703402 10.2181 0.2097 10.3245 0.393012C10.4308 0.576324 10.4682 0.791558 10.43 1C10.43 1.24 10.49 1.24 10.66 1.24C10.83 1.24 11.28 1.24 11.59 1.24C11.724 1.22947 11.8587 1.24811 11.9848 1.29464C12.1109 1.34117 12.2254 1.41449 12.3205 1.50953C12.4155 1.60458 12.4888 1.7191 12.5354 1.8452C12.5819 1.97131 12.6005 2.106 12.59 2.24C12.59 2.81 12.49 2.75 13.09 2.75H18.4C18.5738 2.7395 18.7474 2.77458 18.9035 2.85175C19.0596 2.92892 19.1928 3.04552 19.29 3.19C19.3677 3.32659 19.4079 3.48132 19.4064 3.63846C19.405 3.7956 19.3619 3.94955 19.2817 4.08467C19.2014 4.21978 19.0868 4.33123 18.9495 4.40769C18.8122 4.48416 18.6571 4.52291 18.5 4.52L15.64 4.51ZM10.8 3.75C10.8 3.65 10.8 3.55 10.8 3.45C10.8 3.12 10.74 3 10.39 3.02C9.6 3.02 9.6 3.02 9.55 3.81C9.5 4.42 9.5 4.42 10.12 4.42C10.74 4.42 10.81 4.42 10.8 3.75Z" fill="var(--fill-0, white)"/>
</g>
<defs>
<clipPath id="clip0_0_81">
<rect width="19.39" height="19.72" fill="white"/>
</clipPath>
</defs>
</svg>
