<svg preserveAspectRatio="none" width="100%" height="100%" overflow="visible" style="display: block;" viewBox="0 0 24 24" fill="none" xmlns="http://www.w3.org/2000/svg">
<g id="Icon">
<path id="Vector" d="M12 14L11 15" stroke="var(--stroke-0, white)" stroke-width="1.8" stroke-linecap="round" stroke-linejoin="round"/>
<path id="Vector_2" d="M13.75 18.25L12.5 19.67" stroke="var(--stroke-0, white)" stroke-width="1.8" stroke-linecap="round" stroke-linejoin="round"/>
<path id="Vector_3" d="M17.775 5.654C14.7963 6.27978 12.0641 7.75898 9.91178 9.91113C7.75945 12.0633 6.28003 14.7953 5.654 17.774" stroke="var(--stroke-0, white)" stroke-width="1.8" stroke-linecap="round" stroke-linejoin="round"/>
<path id="Vector_4" d="M18.8 9.3C17.7789 9.57848 16.9103 10.2512 16.3852 11.1701C15.8601 12.089 15.7215 13.1789 16 14.2C16.2785 15.2211 16.9512 16.0897 17.8701 16.6148C18.789 17.1399 19.8789 17.2785 20.9 17" stroke="var(--stroke-0, white)" stroke-width="1.8" stroke-linecap="round" stroke-linejoin="round"/>
<path id="Vector_5" d="M21.964 20.732C22.0117 20.9028 22.0131 21.0831 21.9681 21.2546C21.9231 21.4261 21.8333 21.5825 21.7079 21.7079C21.5825 21.8333 21.4261 21.9231 21.2546 21.9681C21.0831 22.0131 20.9028 22.0117 20.732 21.964L2.732 16.964C2.60546 16.9288 2.48709 16.8689 2.38368 16.788C2.28026 16.707 2.19381 16.6064 2.12927 16.492C2.06473 16.3776 2.02336 16.2516 2.00753 16.1212C1.9917 15.9908 2.00171 15.8585 2.037 15.732C2.94525 12.4622 4.68359 9.48284 7.08321 7.08321C9.48284 4.68359 12.4622 2.94525 15.732 2.037C15.8585 2.00171 15.9908 1.9917 16.1212 2.00753C16.2516 2.02336 16.3776 2.06473 16.492 2.12927C16.6064 2.19381 16.707 2.28026 16.788 2.38368C16.8689 2.48709 16.9288 2.60546 16.964 2.732L21.964 20.732Z" stroke="var(--stroke-0, white)" stroke-width="1.8" stroke-linecap="round" stroke-linejoin="round"/>
</g>
</svg>
