<svg preserveAspectRatio="none" width="100%" height="100%" overflow="visible" style="display: block;" viewBox="0 0 21 21" fill="none" xmlns="http://www.w3.org/2000/svg">
<g id="streamline-flex:salad-vegetable-diet-solid" clip-path="url(#clip0_0_60)">
<path id="Vector" fill-rule="evenodd" clip-rule="evenodd" d="M8.997 4.542C8.91084 4.21721 8.79537 3.90091 8.652 3.597C7.6035 1.371 5.301 0.255 3.507 1.101C1.713 1.947 1.107 4.434 2.157 6.657C2.304 6.969 2.474 7.258 2.667 7.524C1.8585 8.229 1.3665 9.354 1.425 10.605C1.479 10.602 1.534 10.6005 1.59 10.6005H7.455C7.07352 9.34165 6.42935 8.17803 5.565 7.1865C5.40348 6.99733 5.32373 6.75175 5.34328 6.50378C5.36283 6.25581 5.48008 6.02577 5.66925 5.86425C5.85842 5.70273 6.104 5.62298 6.35197 5.64253C6.59994 5.66208 6.82998 5.77933 6.9915 5.9685C8.0383 7.17676 8.81556 8.59425 9.2715 10.1265C9.44435 9.20116 9.82531 8.32723 10.3856 7.57077C10.9458 6.8143 11.6707 6.19511 12.5055 5.76C11.5245 4.695 10.059 4.365 8.997 4.542ZM15.4305 6.9765C17.8995 6.9765 19.3575 8.2755 19.536 10.605L19.41 10.602H11.325C11.5035 8.274 12.9615 6.9765 15.4305 6.9765ZM0.2145 13.53C-0.6675 17.826 2.325 20.1825 10.5 20.1825C18.675 20.1825 21.6675 17.8275 20.784 13.5345C20.652 12.897 20.061 12.4785 19.4115 12.4785H1.59C0.939 12.4785 0.348 12.897 0.216 13.5345" fill="var(--fill-0, white)"/>
</g>
<defs>
<clipPath id="clip0_0_60">
<rect width="21" height="21" fill="white"/>
</clipPath>
</defs>
</svg>
