<svg preserveAspectRatio="none" width="100%" height="100%" overflow="visible" style="display: block;" viewBox="0 0 21.001 21" fill="none" xmlns="http://www.w3.org/2000/svg">
<g id="Group">
<path id="Vector" d="M3.5 4.5C2.83696 4.5 2.20107 4.76339 1.73223 5.23223C1.26339 5.70107 1 6.33696 1 7C1 14.18 6.82 20 14 20C14.663 20 15.2989 19.7366 15.7678 19.2678C16.2366 18.7989 16.5 18.163 16.5 17.5C16.5 16.837 16.2366 16.2011 15.7678 15.7322C15.2989 15.2634 14.663 15 14 15C11.8783 15 9.84344 14.1571 8.34315 12.6569C6.84285 11.1566 6 9.12173 6 7C6 6.33696 5.73661 5.70107 5.26777 5.23223C4.79893 4.76339 4.16304 4.5 3.5 4.5Z" stroke="var(--stroke-0, white)" stroke-width="2" stroke-linecap="round" stroke-linejoin="round"/>
<path id="Vector_2" d="M3.195 4.519L1.952 2.53C1.85739 2.37863 1.80503 2.20469 1.80034 2.02625C1.79566 1.8478 1.83882 1.67136 1.92536 1.51523C2.01189 1.3591 2.13864 1.22898 2.29244 1.13838C2.44624 1.04778 2.6215 1 2.8 1H4.192C4.37051 1 4.54576 1.04778 4.69956 1.13838C4.85336 1.22898 4.98011 1.3591 5.06664 1.51523C5.15318 1.67136 5.19634 1.8478 5.19166 2.02625C5.18697 2.20469 5.13461 2.37863 5.04 2.53L3.795 4.52M16.482 17.225L18.471 15.982C18.6224 15.8874 18.7963 15.835 18.9748 15.8303C19.1532 15.8257 19.3296 15.8688 19.4858 15.9554C19.6419 16.0419 19.772 16.1686 19.8626 16.3224C19.9532 16.4762 20.001 16.6515 20.001 16.83V18.222C20.001 18.4005 19.9532 18.5758 19.8626 18.7296C19.772 18.8834 19.6419 19.0101 19.4858 19.0966C19.3296 19.1832 19.1532 19.2263 18.9748 19.2217C18.7963 19.217 18.6224 19.1646 18.471 19.07L16.48 17.825" stroke="var(--stroke-0, white)" stroke-width="2" stroke-linecap="round" stroke-linejoin="round"/>
</g>
</svg>
