<svg preserveAspectRatio="none" width="100%" height="100%" overflow="visible" style="display: block;" viewBox="0 0 22 23" fill="none" xmlns="http://www.w3.org/2000/svg">
<g id="Isolation_Mode" clip-path="url(#clip0_0_97)">
<path id="Vector" d="M10.9903 0C11.8455 0.150614 12.4511 0.619 12.8637 1.3521C13.0556 1.69441 13.2975 1.66759 13.5594 1.40002C13.8213 1.13246 14.0649 0.835223 14.3834 0.615577C15.3098 -0.0233908 16.3621 0.245889 16.833 1.25169C17.046 1.7081 17.1214 2.19303 17.1161 2.70877C17.4904 2.6734 17.8176 2.51651 18.1755 2.54846C19.4327 2.66256 20.2302 3.72199 20.0354 5.06782C20.0018 5.30172 20.0448 5.40042 20.2584 5.51681C21.1201 5.98576 21.259 6.37257 20.8894 7.29222C20.7717 7.58946 20.764 7.7298 21.0912 7.90951C22.1671 8.50113 22.2684 9.33578 21.4732 10.2326C20.4238 11.4147 19.0601 11.9441 17.5092 12.1153C17.2738 12.1415 17.1243 12.186 17.009 12.4085C16.9012 12.6168 16.7247 12.7988 16.5522 12.9671C13.6145 15.8333 10.6756 18.6978 7.73551 21.5606C6.98509 22.2943 6.13756 22.822 5.04989 22.9184C5.0181 22.9184 4.99103 22.972 4.9616 23H4.40953C4.39305 22.9293 4.33713 22.9213 4.27416 22.9081C2.61911 22.5619 1.53438 21.4465 0.499095 20.2673C0.425689 20.1715 0.36719 20.0658 0.325468 19.9535C-0.247206 18.6596 -0.0359112 17.449 0.740407 16.2977C1.65975 14.9342 2.77684 13.711 3.74916 12.3914C5.4148 10.1316 6.90093 7.74863 8.53832 5.46831C8.96385 4.87498 9.05154 4.43626 8.82377 3.74652C8.44532 2.60094 8.54597 1.46449 9.55712 0.571648C9.86789 0.296093 10.2634 0.185415 10.6195 0.00114101L10.9903 0ZM6.17169 11.1426C6.29014 11.1174 6.4069 11.0852 6.5213 11.0462C7.67607 10.5778 8.87909 10.2805 10.1116 10.0763C10.5171 10.009 11.1121 10.0928 11.2887 9.86692C11.4976 9.59023 11.2545 9.06821 11.171 8.66315C10.9756 7.71098 10.7195 6.77534 10.1557 5.95267C9.99972 5.72447 9.8414 5.58127 9.61598 5.91673C8.4565 7.64137 7.28585 9.35917 6.11872 11.0793L6.01513 11.2048C6.09636 11.2624 6.1405 11.2185 6.17169 11.1426ZM12.3334 11.0439C11.7225 11.0233 10.9208 11.1049 10.1327 11.2361C7.99154 11.5904 5.96923 12.2459 4.31653 13.6722C3.08054 14.7379 2.26185 16.1254 1.42373 17.4826C1.10591 17.9961 1.09119 18.5951 1.2707 19.1799C1.53026 20.0202 3.46194 21.6291 4.36597 21.7534C5.35359 21.8892 6.13167 21.5013 6.80734 20.8406C9.76626 17.9539 12.7287 15.0698 15.6947 12.1883C16.1202 11.7736 16.1067 11.6983 15.5305 11.4769C14.5641 11.1078 13.55 11.045 12.3334 11.0439ZM15.9501 2.97805C15.9242 2.59239 15.9436 2.14054 15.7512 1.71723C15.6035 1.39261 15.3757 1.34412 15.0873 1.53923C14.9764 1.62011 14.8737 1.71104 14.7806 1.81079C13.4099 3.18001 12.756 3.1395 11.6112 1.60313C11.2345 1.09823 10.7372 1.05259 10.2799 1.48902C10.0575 1.6985 9.91272 1.97323 9.86789 2.27062C9.73134 3.11212 10.0374 3.85834 10.387 4.59601C10.4247 4.67531 10.4841 4.76716 10.5889 4.7586C10.7572 4.74434 10.6854 4.59772 10.7025 4.51043C10.7348 4.34955 10.7325 4.18296 10.7613 4.02094C10.8637 3.40365 11.0803 3.2673 11.7083 3.38767C12.9443 3.625 13.8695 4.28223 14.5334 5.31028C14.5847 5.38844 14.6053 5.66 14.7965 5.47744C15.2933 5.00392 15.9148 4.59829 15.9024 3.80243C15.8972 3.54684 15.9313 3.2924 15.9501 2.97805ZM16.6446 10.7307C16.7582 10.9395 16.9048 11.0085 17.1155 10.9954C18.4192 10.9138 19.5916 10.5492 20.4933 9.56912C20.9 9.1264 20.9011 9.09046 20.3673 8.80977C19.4945 8.35337 19.3226 7.9968 19.7246 7.11137C19.93 6.65896 19.7664 6.52774 19.3938 6.3623C18.7829 6.09131 18.6875 5.87052 18.8247 5.21729C18.8807 4.9684 18.895 4.71239 18.8671 4.45909C18.8082 3.97244 18.3991 3.62272 17.9583 3.70316C17.4003 3.80471 17.1108 4.18581 16.9207 4.68101C16.7582 5.1049 17.1561 5.18762 17.3456 5.36562C18.2491 6.21454 18.2644 6.21054 17.5163 7.20151C17.3639 7.4029 17.3892 7.51757 17.5593 7.68473C17.8947 8.01449 18.2108 8.36364 18.5251 8.71165C18.913 9.14409 18.8606 9.47898 18.3562 9.76937C17.8006 10.0917 17.2379 10.3986 16.6446 10.7307ZM12.5594 9.83555C13.0187 9.55973 13.3865 9.16166 13.6188 8.68883C14.3539 7.24544 13.7259 5.44606 12.2422 4.76031C12.1191 4.70326 11.8984 4.50301 11.8625 4.80652C11.769 5.60523 11.5123 6.42334 12.085 7.19239C12.1015 6.98073 12.098 6.7879 12.1345 6.60191C12.1968 6.28471 12.3975 6.08845 12.7448 6.11184C13.092 6.13524 13.2904 6.3332 13.298 6.65896C13.3133 7.32702 13.2392 8.0122 12.7454 8.50284C12.3057 8.93643 12.4829 9.34662 12.5594 9.83555ZM14.2027 9.93938C14.8554 10.179 15.4086 10.2132 15.9442 9.8036C16.2303 9.58509 16.5834 9.45102 16.8912 9.25648C16.9984 9.18859 17.315 9.1709 17.1308 8.96495C16.9801 8.7938 16.9071 8.36078 16.4928 8.59983C15.7429 9.03227 14.9984 9.47327 14.2027 9.93938ZM15.0855 8.06868C15.8507 7.69785 16.1396 6.98472 16.6287 6.44616C16.6911 6.3777 16.6287 6.31552 16.5811 6.25276C16.2691 5.84028 16.1202 5.82545 15.7571 6.18031C15.584 6.35146 15.4157 6.52261 15.2385 6.68806C15.135 6.78447 15.0714 6.87632 15.0808 7.03036C15.0991 7.35954 15.0849 7.68587 15.0849 8.06868H15.0855Z" fill="var(--fill-0, white)"/>
</g>
<defs>
<clipPath id="clip0_0_97">
<rect width="22" height="23" fill="white"/>
</clipPath>
</defs>
</svg>
