<svg preserveAspectRatio="none" width="100%" height="100%" overflow="visible" style="display: block;" viewBox="0 0 21 19.5002" fill="none" xmlns="http://www.w3.org/2000/svg">
<g id="Group">
<path id="Vector" fill-rule="evenodd" clip-rule="evenodd" d="M6.18 1.63968C6.34195 1.52441 6.54303 1.47815 6.73907 1.51106C6.93511 1.54397 7.11007 1.65335 7.2255 1.81518L7.2285 1.81968L7.236 1.82868L7.2555 1.85868C7.34781 1.99641 7.43244 2.13912 7.509 2.28618C7.632 2.52468 7.821 2.94168 7.821 3.37518C7.821 3.80868 7.632 4.22568 7.509 4.46418C7.43195 4.61128 7.34682 4.754 7.254 4.89168L7.236 4.92168L7.23 4.92768L7.2225 4.94118C7.1647 5.02982 7.11162 5.12144 7.0635 5.21568C6.99254 5.33964 6.94429 5.47527 6.921 5.61618C6.921 5.67168 6.96 5.82168 7.0635 6.02868C7.11183 6.12602 7.1654 6.22066 7.224 6.31218L7.233 6.32568M7.233 6.32568C7.34558 6.48979 7.38837 6.69189 7.35194 6.88754C7.31551 7.08319 7.20285 7.25635 7.03875 7.36893C6.87465 7.48152 6.67254 7.5243 6.47689 7.48787C6.28125 7.45144 6.10808 7.33879 5.9955 7.17468V7.17018L5.9925 7.16718L5.9865 7.15818L5.967 7.12818C5.87654 6.98837 5.79392 6.84365 5.7195 6.69468C5.5995 6.45468 5.418 6.03468 5.421 5.60268C5.4255 5.17968 5.607 4.77018 5.7255 4.53618C5.79884 4.39141 5.87996 4.2507 5.9685 4.11468L5.988 4.08468L5.994 4.07568L5.997 4.07268L6.003 4.06518L6.0135 4.05018C6.07288 3.96117 6.12746 3.86903 6.177 3.77418C6.24831 3.65079 6.29708 3.51568 6.321 3.37518C6.29708 3.23469 6.24831 3.09958 6.177 2.97618C6.12702 2.88079 6.07194 2.78816 6.012 2.69868L6.0045 2.68518C5.88923 2.52324 5.84147 2.32215 5.87437 2.12611C5.90728 1.93007 6.01817 1.75512 6.18 1.63968M10.6425 0.139684C10.5623 0.0823746 10.4715 0.0414499 10.3754 0.0192519C10.2794 -0.00294596 10.1799 -0.00598131 10.0826 0.0103195C9.98536 0.0266203 9.89228 0.0619373 9.8087 0.11425C9.72511 0.166562 9.65267 0.234842 9.5955 0.315184L9.5925 0.319684L9.585 0.328684L9.5655 0.358684C9.47319 0.496405 9.38856 0.639123 9.312 0.786184C9.189 1.02468 9 1.44168 9 1.87518C9 2.30868 9.189 2.72568 9.312 2.96418C9.38905 3.11128 9.47418 3.254 9.567 3.39168L9.585 3.42168L9.591 3.42768L9.5985 3.44118C9.6563 3.52982 9.70938 3.62144 9.7575 3.71568C9.82846 3.83964 9.87671 3.97527 9.9 4.11618C9.87858 4.26114 9.83079 4.40095 9.759 4.52868C9.71019 4.62606 9.65611 4.7207 9.597 4.81218L9.588 4.82568M9.588 4.82568C9.47542 4.98979 9.43263 5.19189 9.46906 5.38754C9.50549 5.58319 9.61815 5.75635 9.78225 5.86893C9.94635 5.98152 10.1485 6.0243 10.3441 5.98787C10.5398 5.95144 10.7129 5.83879 10.8255 5.67468V5.67018L10.8285 5.66718L10.8345 5.65818L10.854 5.62818C10.9445 5.48837 11.0271 5.34365 11.1015 5.19468C11.2215 4.95468 11.403 4.53468 11.4 4.10268C11.3955 3.67968 11.214 3.27018 11.0955 3.03618C11.0222 2.8914 10.941 2.7507 10.8525 2.61468L10.833 2.58468L10.827 2.57718L10.824 2.57268L10.2045 3.00018L10.821 2.57268L10.8165 2.56518L10.806 2.55018C10.7466 2.46117 10.692 2.36903 10.6425 2.27418C10.5717 2.15069 10.5235 2.01558 10.5 1.87518C10.5 1.82418 10.539 1.68018 10.644 1.47618C10.694 1.38079 10.7491 1.28816 10.809 1.19868L10.8165 1.18518C10.9318 1.02324 10.9795 0.822152 10.9466 0.626113C10.9137 0.430074 10.8043 0.255117 10.6425 0.139684M15.1425 1.63968C15.0623 1.58237 14.9715 1.54145 14.8754 1.51925C14.7794 1.49705 14.6799 1.49402 14.5826 1.51032C14.4854 1.52662 14.3923 1.56194 14.3087 1.61425C14.2251 1.66656 14.1527 1.73484 14.0955 1.81518L14.0925 1.81968L14.085 1.82868L14.0655 1.85868L14.001 1.95618C13.95 2.03718 13.881 2.15118 13.812 2.28618C13.689 2.52468 13.5 2.94168 13.5 3.37518C13.5 3.80868 13.689 4.22568 13.812 4.46418C13.889 4.61128 13.9742 4.754 14.067 4.89168L14.085 4.92168L14.0895 4.92768L14.0985 4.94118C14.1563 5.02982 14.2094 5.12144 14.2575 5.21568C14.3285 5.33964 14.3767 5.47527 14.4 5.61618C14.3781 5.76124 14.3298 5.90105 14.2575 6.02868C14.2092 6.12602 14.1556 6.22066 14.097 6.31218L14.088 6.32568M14.088 6.32568C13.9754 6.48979 13.9326 6.69189 13.9691 6.88754C14.0055 7.08319 14.1181 7.25635 14.2822 7.36893C14.4464 7.48152 14.6485 7.5243 14.8441 7.48787C15.0398 7.45144 15.2129 7.33879 15.3255 7.17468V7.17018L15.3285 7.16718L15.3345 7.15818L15.354 7.12818C15.4445 6.98837 15.5271 6.84365 15.6015 6.69468C15.7215 6.45468 15.903 6.03468 15.9 5.60268C15.897 5.17968 15.7155 4.77018 15.5955 4.53618C15.5222 4.39141 15.441 4.2507 15.3525 4.11468L15.333 4.08468L15.327 4.07718L15.324 4.07268L14.706 4.49868L15.3225 4.07118L15.3165 4.06368L15.309 4.04868L15.2685 3.98868C15.224 3.91844 15.1825 3.84638 15.144 3.77268C15.0729 3.64975 15.0241 3.51516 15 3.37518C15 3.32418 15.039 3.18018 15.144 2.97618C15.194 2.88079 15.2491 2.78816 15.309 2.69868L15.3165 2.68518C15.4318 2.52324 15.4795 2.32215 15.4466 2.12611C15.4137 1.93007 15.3043 1.75512 15.1425 1.63968" fill="var(--fill-0, #FF7F20)"/>
<path id="Vector_2" fill-rule="evenodd" clip-rule="evenodd" d="M0 8.25018C0 8.05127 0.0790176 7.86051 0.21967 7.71985C0.360322 7.5792 0.551088 7.50018 0.75 7.50018H20.25C20.4489 7.50018 20.6397 7.5792 20.7803 7.71985C20.921 7.86051 21 8.05127 21 8.25018C21 10.2377 20.229 12.2447 19.0845 13.9277C18.039 15.4652 16.6455 16.7867 15.1425 17.6057V18.7502C15.1425 18.9491 15.0635 19.1399 14.9228 19.2805C14.7822 19.4212 14.5914 19.5002 14.3925 19.5002H6.657C6.45809 19.5002 6.26732 19.4212 6.12667 19.2805C5.98602 19.1399 5.907 18.9491 5.907 18.7502V17.6057C4.404 16.7867 3 15.4682 1.9425 13.9307C0.786 12.2492 0 10.2407 0 8.25018Z" fill="var(--fill-0, white)"/>
</g>
</svg>
