<svg preserveAspectRatio="none" width="100%" height="100%" overflow="visible" style="display: block;" viewBox="0 0 22.5 24" fill="none" xmlns="http://www.w3.org/2000/svg">
<g id="Group">
<path id="Vector" d="M13.5701 5.32278C13.7132 5.32278 13.8549 5.29274 13.9872 5.23437C14.1194 5.176 14.2396 5.09046 14.3408 4.98261C14.442 4.87477 14.5223 4.74674 14.5771 4.60583C14.6318 4.46493 14.66 4.3139 14.66 4.16139C14.66 4.00887 14.6318 3.85785 14.5771 3.71694C14.5223 3.57604 14.442 3.44801 14.3408 3.34016C14.2396 3.23232 14.1194 3.14677 13.9872 3.08841C13.8549 3.03004 13.7132 3 13.5701 3C13.281 3 13.0038 3.12236 12.7993 3.34016C12.5949 3.55796 12.4801 3.85337 12.4801 4.16139C12.4801 4.46941 12.5949 4.76481 12.7993 4.98261C13.0038 5.20042 13.281 5.32278 13.5701 5.32278ZM13.8503 9.92685C13.8503 10.3295 13.7002 10.7156 13.433 11.0003C13.1659 11.285 12.8035 11.4449 12.4256 11.4449C12.0477 11.4449 11.6854 11.285 11.4182 11.0003C11.151 10.7156 11.0009 10.3295 11.0009 9.92685C11.0009 9.52422 11.151 9.13809 11.4182 8.85339C11.6854 8.56869 12.0477 8.40875 12.4256 8.40875C12.8035 8.40875 13.1659 8.56869 13.433 8.85339C13.7002 9.13809 13.8503 9.52422 13.8503 9.92685ZM7.11592 14.4977C7.11592 14.8674 6.97811 15.2218 6.73282 15.4832C6.48753 15.7446 6.15485 15.8914 5.80796 15.8914C5.46107 15.8914 5.12838 15.7446 4.88309 15.4832C4.6378 15.2218 4.5 14.8674 4.5 14.4977C4.5 14.1281 4.6378 13.7736 4.88309 13.5123C5.12838 13.2509 5.46107 13.1041 5.80796 13.1041C6.15485 13.1041 6.48753 13.2509 6.73282 13.5123C6.97811 13.7736 7.11592 14.1281 7.11592 14.4977ZM6.82785 19.5C7.06738 19.5 7.29709 19.3986 7.46645 19.2182C7.63582 19.0377 7.73097 18.7929 7.73097 18.5377C7.73097 18.2825 7.63582 18.0377 7.46645 17.8573C7.29709 17.6768 7.06738 17.5754 6.82785 17.5754C6.58833 17.5754 6.35862 17.6768 6.18926 17.8573C6.01989 18.0377 5.92474 18.2825 5.92474 18.5377C5.92474 18.7929 6.01989 19.0377 6.18926 19.2182C6.35862 19.3986 6.58833 19.5 6.82785 19.5ZM18 10.8891C18 11.1444 17.9049 11.3891 17.7355 11.5696C17.5661 11.75 17.3364 11.8514 17.0969 11.8514C16.8574 11.8514 16.6277 11.75 16.4583 11.5696C16.2889 11.3891 16.1938 11.1444 16.1938 10.8891C16.1938 10.6339 16.2889 10.3892 16.4583 10.2087C16.6277 10.0282 16.8574 9.92685 17.0969 9.92685C17.3364 9.92685 17.5661 10.0282 17.7355 10.2087C17.9049 10.3892 18 10.6339 18 10.8891Z" fill="var(--fill-0, white)"/>
<path id="Vector_2" d="M17.3404 0.816702C15.4569 -0.0301835 13.3236 -0.225582 11.3058 0.263967C9.28806 0.753517 7.51131 1.89756 6.27987 3.50018L1.88719 9.21447C-1.73678 13.9268 0.0529908 20.6271 5.59247 23.1137C10.4831 25.3113 16.2992 23.2785 18.5643 18.6038C19.2404 17.2108 19.9147 15.8169 20.5871 14.4222L21.6744 12.1677C23.7366 7.89394 21.8043 2.82791 17.3404 0.816702ZM7.63205 4.44696C8.63331 3.14409 10.0778 2.21398 11.7182 1.81584C13.3586 1.41771 15.093 1.5763 16.6245 2.26448C20.2585 3.90194 21.8295 8.02359 20.1529 11.4978L19.0656 13.7515C18.5207 14.8799 18.5081 14.9088 17.0428 17.9308C15.1675 21.8035 10.3532 23.4834 6.30753 21.6651C1.7212 19.6058 0.240769 14.0604 3.23936 10.1613L7.63205 4.44696Z" fill="var(--fill-0, white)"/>
</g>
</svg>
