<svg preserveAspectRatio="none" overflow="visible" style="display: block;" width="32" height="32" viewBox="0 0 32 32" fill="none" xmlns="http://www.w3.org/2000/svg">
<g id="ribbon">
<path id="bg" d="M0 16C0 7.16344 7.16344 0 16 0V0C24.8366 0 32 7.16344 32 16V16C32 24.8366 24.8366 32 16 32V32C7.16344 32 0 24.8366 0 16V16Z" fill="#6FC604"/>
<path id="Vector" d="M22.9549 8.67259C22.9456 8.50949 22.878 8.35558 22.765 8.24006C22.652 8.12453 22.5014 8.05545 22.3419 8.04593C16.1361 7.67343 11.1653 9.58341 9.04587 13.1667C8.31127 14.3925 7.94925 15.8136 8.00573 17.25C8.0426 18.1685 8.22541 19.0748 8.54699 19.9333C8.56589 19.9861 8.59756 20.0332 8.63905 20.0701C8.68054 20.1071 8.7305 20.1327 8.78429 20.1446C8.83807 20.1565 8.89393 20.1543 8.94665 20.1382C8.99937 20.1221 9.04725 20.0926 9.08581 20.0524L16.0147 12.8609C16.0752 12.7989 16.1472 12.7498 16.2263 12.7163C16.3055 12.6828 16.3903 12.6655 16.476 12.6655C16.5617 12.6655 16.6466 12.6828 16.7257 12.7163C16.8049 12.7498 16.8768 12.7989 16.9374 12.8609C16.998 12.9228 17.0461 12.9963 17.0789 13.0773C17.1116 13.1582 17.1285 13.2449 17.1285 13.3325C17.1285 13.4201 17.1116 13.5069 17.0789 13.5878C17.0461 13.6687 16.998 13.7422 16.9374 13.8042L9.36541 21.6616L8.2087 22.8441C8.08841 22.9638 8.01659 23.1254 8.00753 23.2968C7.99847 23.4682 8.05282 23.6368 8.1598 23.7691C8.21838 23.8384 8.29032 23.8947 8.37112 23.9343C8.45193 23.974 8.53986 23.9962 8.62943 23.9996C8.71901 24.0029 8.8083 23.9874 8.89173 23.9539C8.97516 23.9204 9.05094 23.8697 9.11434 23.8049L10.483 22.4057C11.6356 22.9757 12.7989 23.2866 13.9523 23.3282C14.0431 23.3316 14.1335 23.3332 14.2238 23.3332C15.5373 23.3367 16.8259 22.9668 17.9458 22.2649C21.4509 20.0983 23.3201 15.0175 22.9549 8.67259Z" fill="white"/>
</g>
</svg>
