<svg width="36" height="24" viewBox="0 0 36 24" fill="none" xmlns="http://www.w3.org/2000/svg" aria-hidden="true">
  <rect width="36" height="24" rx="4" fill="#1A1F71"/>
  <path d="M14.2 16.2L16.4 7.8H18.9L16.7 16.2H14.2ZM24.1 7.9C23.4 7.6 22.4 7.4 21.2 7.4C18.4 7.4 16.5 8.8 16.5 10.8C16.5 12.2 17.8 13 18.9 13.5C20 14 20.4 14.4 20.4 14.9C20.4 15.7 19.4 16.1 18.5 16.1C17.2 16.1 16.4 15.9 15.3 15.4L14.9 15.2L14.5 17.6C15.4 18 16.7 18.2 18 18.2C21 18.2 22.8 16.8 22.8 14.7C22.8 13.6 22 12.7 20.4 12C19.4 11.5 18.8 11.1 18.8 10.6C18.8 10 19.5 9.4 20.9 9.4C21.9 9.4 22.7 9.6 23.3 9.9L23.6 10L24.1 7.9ZM28.5 7.8H26.6C25.9 7.8 25.3 8 25 8.7L21.5 16.2H24.2L24.7 14.7H27.8L28.1 16.2H30.5L28.5 7.8ZM25.5 12.7L26.6 9.8L27.2 12.7H25.5ZM12.1 7.8L9.6 13.6L9.4 12.6C9 11.2 7.7 9.7 6.2 9L8.4 16.2H11.1L14.8 7.8H12.1Z" fill="white"/>
</svg>
